<svg xmlns="http://www.w3.org/2000/svg" viewBox="0 0 64 64">
  <title>Soccer Canvas Play</title>
  <defs>
    <radialGradient id="g" cx="30%" cy="25%" r="75%">
      <stop offset="0%" stop-color="#ffffff"/>
      <stop offset="55%" stop-color="#f6f7fb"/>
      <stop offset="100%" stop-color="#e6e9f2"/>
    </radialGradient>
  </defs>
  <circle cx="32" cy="32" r="28" fill="url(#g)"/>
  <circle cx="32" cy="32" r="28" fill="none" stroke="#111827" stroke-width="2"/>

  <!-- center pentagon -->
  <path d="M32 22.2 24.6 27.6 27.4 36.4 36.6 36.4 39.4 27.6Z" fill="#111827"/>

  <!-- surrounding panels (simple stylized) -->
  <path d="M32 22.2 39.4 27.6 47.2 25 41.5 17.8Z" fill="#111827" opacity="0.92"/>
  <path d="M39.4 27.6 36.6 36.4 44.2 42 48.6 33.2Z" fill="#111827" opacity="0.9"/>
  <path d="M36.6 36.4 27.4 36.4 24 45.2 32 49.2 40 45.2Z" fill="#111827" opacity="0.88"/>
  <path d="M27.4 36.4 24.6 27.6 15.4 33.2 19.8 42Z" fill="#111827" opacity="0.9"/>
  <path d="M24.6 27.6 32 22.2 22.5 17.8 16.8 25Z" fill="#111827" opacity="0.92"/>
</svg>
